<?xml version="1.0" encoding="utf-8"?>
<!-- Generator: Adobe Illustrator 25.4.1, SVG Export Plug-In . SVG Version: 6.00 Build 0)  -->
<svg version="1.1" xmlns="http://www.w3.org/2000/svg" xmlns:xlink="http://www.w3.org/1999/xlink" x="0px" y="0px"
	 viewBox="0 0 561.4 150.9" style="enable-background:new 0 0 561.4 150.9;" xml:space="preserve">
<style type="text/css">
	.st0{fill:url(#SVGID_1_);}
	.st1{fill:#0068FF;}
	.st2{fill:#3B90F4;}
	.st3{fill:url(#SVGID_00000177451445972666150060000010887476514630520724_);}
	.st4{fill:#FFFFFF;}
	.st5{clip-path:url(#SVGID_00000135661429462956425650000002029183829178320562_);}
	.st6{clip-path:url(#SVGID_00000062887348530274092300000015758163641308077190_);}
	
		.st7{opacity:0.5;clip-path:url(#SVGID_00000170961356914042527270000012505770832325423750_);fill:url(#SVGID_00000157276538114341668870000011129703023058929319_);}
</style>
<g id="Layer_2">
</g>
<g id="Layer_1">
	<g>
		<linearGradient id="SVGID_1_" gradientUnits="userSpaceOnUse" x1="22.3085" y1="105.7747" x2="60.1321" y2="105.7747">
			<stop  offset="0" style="stop-color:#0048BC;stop-opacity:0"/>
			<stop  offset="0.9478" style="stop-color:#0048BC;stop-opacity:0.98"/>
		</linearGradient>
		<rect x="22.3" y="85.6" class="st0" width="37.8" height="40.4"/>
		<rect x="81.5" y="85.6" class="st1" width="3.7" height="40.4"/>
		<rect x="107.3" y="85.6" class="st2" width="23.1" height="40.4"/>
		<rect x="90" y="85.6" class="st1" width="17.3" height="40.4"/>
		
			<linearGradient id="SVGID_00000120524444529405875940000017266591014982682791_" gradientUnits="userSpaceOnUse" x1="89.9932" y1="105.7747" x2="197.3447" y2="105.7747">
			<stop  offset="0" style="stop-color:#0048BC;stop-opacity:0"/>
			<stop  offset="0.9478" style="stop-color:#0048BC;stop-opacity:0.98"/>
		</linearGradient>
		
			<rect x="90" y="85.6" style="fill:url(#SVGID_00000120524444529405875940000017266591014982682791_);" width="107.4" height="40.4"/>
		<g>
			<rect x="22.3" y="85.6" class="st2" width="3.7" height="40.4"/>
			<rect x="30.4" y="85.6" class="st2" width="7.5" height="40.4"/>
		</g>
		<g>
			<path class="st4" d="M65.4,53.5l4.6,2.3c-3.8,6.1-10.9,9.9-20.7,9.9C34.2,65.7,25,57.4,25,44.3s9.2-21.4,24.5-21.4
				c9.7,0,16.8,3.9,20.6,9.9l-4.6,2.3c-3.2-5.4-9-7.7-16-7.7C37.7,27.4,30,33.1,30,44.3s7.7,16.9,19.5,16.9
				C56.5,61.2,62.3,58.9,65.4,53.5z"/>
			<path class="st4" d="M122.9,53.6H95.6l-5.9,10.9h-5.4l22.2-40.4h5.4l22.2,40.4h-5.5L122.9,53.6z M120.5,49.2l-11.3-20.7L98,49.2
				H120.5z"/>
			<path class="st4" d="M191,64.5L177.6,49h-19.2v15.5h-4.9V24.1h27.2c9,0,15.5,4.5,15.5,12.5c0,7-5.1,11.4-12.5,12.3l13.8,15.7H191
				z M180.2,44.5c6.5,0,10.9-2.5,10.9-8s-4.3-8-10.9-8h-22v15.9H180.2z"/>
			<path class="st4" d="M257.6,60v4.5h-39.1V24.1H257v4.5h-33.7v13.1h28.5v4.5h-28.5V60H257.6z"/>
		</g>
		<g>
			<path class="st4" d="M257.6,121.5v4.5h-39.1V85.6H257v4.5h-33.7v13.1h28.5v4.5h-28.5v13.8H257.6z"/>
			<path class="st4" d="M315.3,123.2l6.1,6.5l-3.1,2.9l-6.9-7.4c-3.3,1.3-7.3,2-11.8,2c-15.4,0-24.6-8.3-24.6-21.4
				s9.2-21.4,24.6-21.4c15.4,0,24.6,8.3,24.6,21.4C324.2,113.5,321,119.5,315.3,123.2z M308,121.5l-6.5-7l3.1-2.9l7.5,8
				c4.6-2.8,7.2-7.5,7.2-13.8c0-10.9-7.7-16.9-19.6-16.9c-11.9,0-19.6,6.1-19.6,16.9s7.7,16.9,19.6,16.9
				C302.7,122.7,305.5,122.3,308,121.5z"/>
			<path class="st4" d="M388,85.6v21.4c0,11.8-7.4,20.3-21.3,20.3c-13.9,0-21.4-8.5-21.4-20.3V85.6h4.9v21.1c0,9.9,6,16.1,16.5,16.1
				c10.5,0,16.5-6.1,16.5-16.1V85.6H388z"/>
			<path class="st4" d="M412.2,126V85.6h4.9V126H412.2z"/>
			<path class="st4" d="M479.6,89.9h-19.1V126h-4.9V89.9h-19.1v-4.4h43V89.9z"/>
			<path class="st4" d="M499.3,85.6l17,21.9l16.9-21.9h5.8l-20.3,26.3V126h-4.9v-14.2l-20.3-26.3H499.3z"/>
		</g>
		<g>
			<defs>
				<rect id="SVGID_00000001658297387995927100000003153222747489257355_" x="81.5" y="85.6" width="3.7" height="40.4"/>
			</defs>
			<defs>
				<polygon id="SVGID_00000070840692379217359790000004468844955555363245_" points="130.4,85.6 107.3,85.6 90,85.6 90,126 
					107.3,126 130.4,126 197.3,126 197.3,85.6 				"/>
			</defs>
			<defs>
				<polygon id="SVGID_00000136382170020092799960000011433858977779946648_" points="30.4,85.6 26,85.6 22.3,85.6 22.3,126 26,126 
					30.4,126 37.8,126 60.1,126 60.1,85.6 37.8,85.6 				"/>
			</defs>
			<clipPath id="SVGID_00000076586650534689387570000007260723561900052651_">
				<use xlink:href="#SVGID_00000001658297387995927100000003153222747489257355_"  style="overflow:visible;"/>
			</clipPath>
			
				<clipPath id="SVGID_00000181066162125493549530000010920220430701745830_" style="clip-path:url(#SVGID_00000076586650534689387570000007260723561900052651_);">
				<use xlink:href="#SVGID_00000070840692379217359790000004468844955555363245_"  style="overflow:visible;"/>
			</clipPath>
			
				<clipPath id="SVGID_00000008866489673010114310000008225279209367548080_" style="clip-path:url(#SVGID_00000181066162125493549530000010920220430701745830_);">
				<use xlink:href="#SVGID_00000136382170020092799960000011433858977779946648_"  style="overflow:visible;"/>
			</clipPath>
			
				<radialGradient id="SVGID_00000016047310999617281700000002572992561518421429_" cx="322.6918" cy="-52.439" r="98.5272" gradientTransform="matrix(1.8199 0 0 0.1695 -554.9963 136.729)" gradientUnits="userSpaceOnUse">
				<stop  offset="0.1812" style="stop-color:#FFFFFF;stop-opacity:0.98"/>
				<stop  offset="1" style="stop-color:#FFFFFF;stop-opacity:0"/>
			</radialGradient>
			
				<ellipse style="opacity:0.5;clip-path:url(#SVGID_00000008866489673010114310000008225279209367548080_);fill:url(#SVGID_00000016047310999617281700000002572992561518421429_);" cx="32.3" cy="127.8" rx="252.8" ry="18.6"/>
		</g>
	</g>
</g>
</svg>
